<svg xmlns="http://www.w3.org/2000/svg" viewBox="0 0 178.17 24.49"><g id="Capa_2" data-name="Capa 2"><g id="material"><path d="M1.81,11.32l1,11.74a1.4,1.4,0,0,1-.29,1.06,1.32,1.32,0,0,1-1,.37H1.31a1.32,1.32,0,0,1-1-.37A1.36,1.36,0,0,1,0,23.06L1,11.32a.31.31,0,0,1,.33-.3h.2A.28.28,0,0,1,1.81,11.32ZM.42,6.15a1.2,1.2,0,0,1,1-.43,1.23,1.23,0,0,1,1,.43,1.68,1.68,0,0,1,.36,1.13,1.64,1.64,0,0,1-.36,1.1,1.23,1.23,0,0,1-1,.43,1.2,1.2,0,0,1-1-.43,1.64,1.64,0,0,1-.36-1.1A1.68,1.68,0,0,1,.42,6.15Z"/><path d="M6.77,22.71q-1.7-1.65-1.69-5.09V7.75A1,1,0,0,0,4.69,7a2.17,2.17,0,0,0-1-.46.56.56,0,0,1-.23-.13.29.29,0,0,1-.08-.22V6a.38.38,0,0,1,.06-.24.21.21,0,0,1,.17-.06,13,13,0,0,1,1.43.08c.57,0,1,0,1.26,0s.71,0,1.28,0A13.07,13.07,0,0,1,9,5.72a.23.23,0,0,1,.18.06.48.48,0,0,1,0,.24v.13c0,.18-.07.29-.2.32A2.1,2.1,0,0,0,8,6.93a1,1,0,0,0-.41.82v9.44C7.59,19.45,8,21,8.72,22a3.54,3.54,0,0,0,2.86,1.36A3.73,3.73,0,0,0,14.45,22a6,6,0,0,0,1.17-4.08V8.26A1.62,1.62,0,0,0,14,6.47a.29.29,0,0,1-.23-.32V6a.48.48,0,0,1,0-.24A.22.22,0,0,1,14,5.72c.3,0,.7,0,1.2,0l.88,0,.88,0c.47,0,.88,0,1.25,0a.23.23,0,0,1,.18.06.48.48,0,0,1,.05.24v.13a.29.29,0,0,1-.08.22.53.53,0,0,1-.25.13,1.83,1.83,0,0,0-1.1.54,1.76,1.76,0,0,0-.38,1.22v9.23q0,3.61-1.51,5.25a5.18,5.18,0,0,1-4,1.63A6,6,0,0,1,6.77,22.71ZM9.54,4.24a.23.23,0,0,1-.2-.12L9.27,4a.32.32,0,0,1,0-.15.55.55,0,0,1,.2-.33L10.82,2A13.5,13.5,0,0,1,12.55.33,1.69,1.69,0,0,1,13.43,0a.86.86,0,0,1,.76.43,1,1,0,0,1,.22.62,1.37,1.37,0,0,1-.6,1,37.8,37.8,0,0,1-4,2.09A.56.56,0,0,1,9.54,4.24Z"/><path d="M23.65,12.8a2.42,2.42,0,0,0-1.38.43,2.54,2.54,0,0,0-1,1.25V22a1.08,1.08,0,0,0,.38.83,1.8,1.8,0,0,0,.85.45c.13,0,.2.14.2.33v.12a.43.43,0,0,1,0,.24.22.22,0,0,1-.18.06,9.68,9.68,0,0,1-1.18-.07c-.53,0-.92-.05-1.18-.05s-.65,0-1.15.05a8.56,8.56,0,0,1-1.15.07.22.22,0,0,1-.18-.06.43.43,0,0,1,0-.24v-.12a.37.37,0,0,1,.07-.23.82.82,0,0,1,.23-.13,1.67,1.67,0,0,0,.79-.46A1.08,1.08,0,0,0,19,22V14.71c0-.67-.39-1.11-1.18-1.31-.12,0-.18-.1-.18-.25V13a.24.24,0,0,1,.21-.25,4.93,4.93,0,0,0,1.5-.59,5.93,5.93,0,0,0,1.21-.89.23.23,0,0,1,.17-.08l.2,0a.33.33,0,0,1,.23.3v1.69a4.28,4.28,0,0,1,1.49-1.5,3.87,3.87,0,0,1,1.9-.49A3.12,3.12,0,0,1,27.2,12.3a4.77,4.77,0,0,1,.86,3V22a1.11,1.11,0,0,0,.38.83,1.85,1.85,0,0,0,.85.45q.21,0,.21.33v.12a.43.43,0,0,1-.05.24.24.24,0,0,1-.18.06,9.45,9.45,0,0,1-1.18-.07c-.54,0-.93-.05-1.18-.05s-.65,0-1.15.05A8.71,8.71,0,0,1,24.6,24a.21.21,0,0,1-.17-.06s-.05-.12-.05-.24v-.12a.32.32,0,0,1,.07-.23.7.7,0,0,1,.23-.13,1.72,1.72,0,0,0,.79-.46,1.12,1.12,0,0,0,.34-.79V16.19Q25.81,12.8,23.65,12.8Z"/><path d="M29.92,23.93a.43.43,0,0,1-.05-.24v-.12a.32.32,0,0,1,.08-.23.64.64,0,0,1,.22-.13,1.67,1.67,0,0,0,.79-.46A1.08,1.08,0,0,0,31.3,22V15c0-.67-.39-1.11-1.18-1.31-.11,0-.17-.1-.17-.25v-.2a.25.25,0,0,1,.2-.25,7.7,7.7,0,0,0,1.44-.7,7.29,7.29,0,0,0,1.37-1,.25.25,0,0,1,.17-.08l.2,0a.32.32,0,0,1,.23.3V22a1.11,1.11,0,0,0,.38.83,1.8,1.8,0,0,0,.85.45c.13,0,.2.14.2.33v.12a.43.43,0,0,1-.05.24.21.21,0,0,1-.17.06,9.45,9.45,0,0,1-1.18-.07c-.54,0-.93-.05-1.18-.05s-.66,0-1.16.05A8.56,8.56,0,0,1,30.1,24,.22.22,0,0,1,29.92,23.93ZM31.24,6.4a1.38,1.38,0,0,1,1.09-.48,1.34,1.34,0,0,1,1.08.48,1.91,1.91,0,0,1,.4,1.28A1.93,1.93,0,0,1,33.41,9a1.32,1.32,0,0,1-1.08.49A1.35,1.35,0,0,1,31.24,9a1.89,1.89,0,0,1-.41-1.29A1.86,1.86,0,0,1,31.24,6.4Z"/><path d="M38.12,23.57a5.65,5.65,0,0,1-2-2.38,8.51,8.51,0,0,1-.75-3.72,7.72,7.72,0,0,1,.69-3.42A5,5,0,0,1,38,11.92a5.33,5.33,0,0,1,2.75-.73,7.32,7.32,0,0,1,1.94.27,3.45,3.45,0,0,1,1.4.64.86.86,0,0,1,.26.34,1.18,1.18,0,0,1,.07.48v2.41a.21.21,0,0,1-.07.17.21.21,0,0,1-.16.06H44q-.23,0-.3-.3a5.84,5.84,0,0,0-1.14-2.44,2.4,2.4,0,0,0-1.82-.77,2.36,2.36,0,0,0-2.09,1.29,7.31,7.31,0,0,0-.77,3.7,7.48,7.48,0,0,0,1,4.19,3.09,3.09,0,0,0,2.68,1.51,3.75,3.75,0,0,0,1.58-.35,3.54,3.54,0,0,0,1.28-1c.13-.15.26-.18.4-.08l.1.08a.28.28,0,0,1,.1.37,4.37,4.37,0,0,1-4.19,2.64A4.83,4.83,0,0,1,38.12,23.57Z"/><path d="M48.3,23.57a5.22,5.22,0,0,1-1.88-2.29,8.38,8.38,0,0,1-.66-3.44,8.57,8.57,0,0,1,.66-3.48A5.36,5.36,0,0,1,48.29,12a5.17,5.17,0,0,1,5.59,0,5.22,5.22,0,0,1,1.84,2.27,8.38,8.38,0,0,1,.65,3.4,8.91,8.91,0,0,1-.65,3.52,5.4,5.4,0,0,1-1.83,2.35,4.71,4.71,0,0,1-2.76.83A5.09,5.09,0,0,1,48.3,23.57ZM49,22a2.52,2.52,0,0,0,2.3,1.57,2.11,2.11,0,0,0,1.91-1.48A10.26,10.26,0,0,0,53.91,18a10.37,10.37,0,0,0-.77-4.42A2.41,2.41,0,0,0,51,12a2.21,2.21,0,0,0-2,1.48,9.78,9.78,0,0,0-.71,4.17A9.72,9.72,0,0,0,49,22Z"/><path d="M65.08,23.53a5.89,5.89,0,0,1-2-2.36,7.94,7.94,0,0,1-.72-3.45,8.42,8.42,0,0,1,.69-3.57A5.05,5.05,0,0,1,65,11.93a5,5,0,0,1,2.67-.74,4.27,4.27,0,0,1,2.17.58,4.43,4.43,0,0,1,1.57,1.53,3.84,3.84,0,0,1,.58,2,1.28,1.28,0,0,1-.19.84.88.88,0,0,1-.64.19H64.88a6.29,6.29,0,0,0,0,.73,7.12,7.12,0,0,0,1.08,4.24,3.28,3.28,0,0,0,2.76,1.48,3,3,0,0,0,1.49-.35,4.05,4.05,0,0,0,1.22-1.05c.14-.15.27-.18.41-.08l.1.08a.29.29,0,0,1,.1.37,5,5,0,0,1-1.81,1.95,4.66,4.66,0,0,1-2.48.69A4.59,4.59,0,0,1,65.08,23.53Zm2.43-8.1a2.87,2.87,0,0,0,1.56-.3,1.16,1.16,0,0,0,.43-1,2,2,0,0,0-.58-1.45,1.87,1.87,0,0,0-1.41-.6,2.13,2.13,0,0,0-1.73.81,5.09,5.09,0,0,0-.85,2.57Z"/><path d="M78.58,12.8a2.46,2.46,0,0,0-1.38.43,2.59,2.59,0,0,0-1,1.25V22a1.11,1.11,0,0,0,.38.83,1.8,1.8,0,0,0,.85.45c.14,0,.2.14.2.33v.12c0,.12,0,.2-.05.24a.21.21,0,0,1-.17.06,9.45,9.45,0,0,1-1.18-.07c-.54,0-.93-.05-1.18-.05s-.65,0-1.16.05a8.46,8.46,0,0,1-1.15.07.24.24,0,0,1-.18-.06.43.43,0,0,1,0-.24v-.12a.32.32,0,0,1,.08-.23.64.64,0,0,1,.22-.13,1.7,1.7,0,0,0,.8-.46A1.11,1.11,0,0,0,74,22V14.71c0-.67-.39-1.11-1.18-1.31-.11,0-.17-.1-.17-.25V13a.24.24,0,0,1,.2-.25,5.08,5.08,0,0,0,1.51-.59,5.84,5.84,0,0,0,1.2-.89.25.25,0,0,1,.18-.08l.2,0a.32.32,0,0,1,.22.3v1.69a4.3,4.3,0,0,1,1.5-1.5,3.8,3.8,0,0,1,1.89-.49,3.11,3.11,0,0,1,2.62,1.11,4.77,4.77,0,0,1,.87,3V22a1.08,1.08,0,0,0,.38.83,1.8,1.8,0,0,0,.85.45c.13,0,.2.14.2.33v.12a.43.43,0,0,1-.05.24.22.22,0,0,1-.18.06A9.68,9.68,0,0,1,83,23.92c-.53,0-.92-.05-1.18-.05s-.65,0-1.15.05a8.56,8.56,0,0,1-1.15.07.22.22,0,0,1-.18-.06.43.43,0,0,1,0-.24v-.12a.37.37,0,0,1,.07-.23.82.82,0,0,1,.23-.13,1.67,1.67,0,0,0,.79-.46,1.08,1.08,0,0,0,.34-.79V16.19Q80.74,12.8,78.58,12.8Z"/><path d="M92.76,23.53a5.89,5.89,0,0,1-2-2.36,7.94,7.94,0,0,1-.72-3.45,8.42,8.42,0,0,1,.69-3.57,5.05,5.05,0,0,1,1.88-2.22,5,5,0,0,1,2.67-.74,4.27,4.27,0,0,1,2.17.58,4.43,4.43,0,0,1,1.57,1.53,3.84,3.84,0,0,1,.58,2,1.28,1.28,0,0,1-.19.84.88.88,0,0,1-.64.19H92.56a6.29,6.29,0,0,0,0,.73,7.12,7.12,0,0,0,1.08,4.24,3.28,3.28,0,0,0,2.77,1.48,3,3,0,0,0,1.48-.35,4.21,4.21,0,0,0,1.23-1.05c.13-.15.26-.18.4-.08l.1.08a.29.29,0,0,1,.1.37,5,5,0,0,1-1.81,1.95,4.66,4.66,0,0,1-2.48.69A4.59,4.59,0,0,1,92.76,23.53Zm2.43-8.1a2.87,2.87,0,0,0,1.56-.3,1.16,1.16,0,0,0,.43-1,2,2,0,0,0-.58-1.45,1.87,1.87,0,0,0-1.41-.6,2.13,2.13,0,0,0-1.73.81,5.09,5.09,0,0,0-.85,2.57Z"/><path d="M100,23.93a.43.43,0,0,1-.05-.24v-.12a.32.32,0,0,1,.08-.23.64.64,0,0,1,.22-.13,1.63,1.63,0,0,0,.79-.46,1.08,1.08,0,0,0,.34-.79V7.6c0-.65-.39-1.08-1.18-1.3-.11,0-.17-.1-.17-.25v-.2a.23.23,0,0,1,.2-.25,8.51,8.51,0,0,0,2.81-1.06.36.36,0,0,1,.3,0l.13,0a.28.28,0,0,1,.17.28V22a1.11,1.11,0,0,0,.38.83,1.8,1.8,0,0,0,.85.45c.14,0,.2.14.2.33v.12c0,.12,0,.2,0,.24a.21.21,0,0,1-.17.06,9.45,9.45,0,0,1-1.18-.07c-.54,0-.93-.05-1.18-.05s-.66,0-1.16.05a8.46,8.46,0,0,1-1.15.07A.23.23,0,0,1,100,23.93Z"/><path d="M110.4,23.93a.43.43,0,0,1-.05-.24v-.12c0-.19.07-.3.2-.33a2.05,2.05,0,0,0,1-.45A1.12,1.12,0,0,0,112,22l.53-14.21a1,1,0,0,0-.43-.81,2.26,2.26,0,0,0-1-.47c-.13,0-.2-.14-.2-.32V6a.48.48,0,0,1,.05-.24.24.24,0,0,1,.18-.06c.9,0,1.56,0,2,0s1.11,0,2,0l3.71,12.45L122.7,5.72c.87,0,1.51,0,1.91,0s1.07,0,1.9,0a.22.22,0,0,1,.18.06.48.48,0,0,1,0,.24v.13c0,.18-.07.29-.2.32a2.26,2.26,0,0,0-1,.47,1,1,0,0,0-.43.81L125.46,22a1.15,1.15,0,0,0,.44.83,2.14,2.14,0,0,0,1,.45c.13,0,.2.14.2.33v.12a.43.43,0,0,1,0,.24.21.21,0,0,1-.17.06,11.5,11.5,0,0,1-1.31-.07c-.57,0-1-.05-1.3-.05s-.67,0-1.23.05a15.25,15.25,0,0,1-1.59.07.21.21,0,0,1-.17-.06.43.43,0,0,1,0-.24v-.12a.29.29,0,0,1,.3-.33,2.08,2.08,0,0,0,1.08-.47A1,1,0,0,0,123,22l-.33-12.67-4.16,13.2a.32.32,0,0,1-.33.25h-.35a.32.32,0,0,1-.33-.25l-4-13.08L113,22a.9.9,0,0,0,.4.81,2.58,2.58,0,0,0,1.28.47.29.29,0,0,1,.3.33v.12a.43.43,0,0,1,0,.24.22.22,0,0,1-.18.06,8.88,8.88,0,0,1-1.15-.07c-.5,0-.89-.05-1.15-.05s-.53,0-.93.05a5.65,5.65,0,0,1-.93.07A.23.23,0,0,1,110.4,23.93Z"/><path d="M129.26,23.26a4.81,4.81,0,0,1-.86-3V13.48a1.1,1.1,0,0,0-.38-.83,1.68,1.68,0,0,0-.85-.45c-.14,0-.2-.15-.2-.33v-.13a.34.34,0,0,1,0-.23.21.21,0,0,1,.17-.07l.78.05,1.15.08a4.07,4.07,0,0,0,.56,0l.72,0a.35.35,0,0,1,.28.09.54.54,0,0,1,.08.34l0,.52c0,.71-.07,1.21-.07,1.51v5.39c0,2.26.72,3.39,2.15,3.39a2.48,2.48,0,0,0,1.38-.42,2.55,2.55,0,0,0,1-1.26v-7.6a1.09,1.09,0,0,0-.37-.83,1.67,1.67,0,0,0-.86-.45.3.3,0,0,1-.2-.33v-.13a.41.41,0,0,1,0-.23.23.23,0,0,1,.18-.07l.78.05,1.15.08a3.91,3.91,0,0,0,.55,0l.73,0a.36.36,0,0,1,.28.09.55.55,0,0,1,.07.34l0,.52c0,.71-.08,1.21-.08,1.51V20.7a2,2,0,0,0,.27,1.16,1.56,1.56,0,0,0,.91.55c.12,0,.18.1.18.25v.2a.23.23,0,0,1-.2.25,5.71,5.71,0,0,0-1.48.39,3.6,3.6,0,0,0-1.18.67.58.58,0,0,1-.23.1l-.2-.05a.33.33,0,0,1-.23-.3V22.39a4.16,4.16,0,0,1-1.49,1.49,3.75,3.75,0,0,1-1.89.49A3.13,3.13,0,0,1,129.26,23.26Z"/><path d="M145.21,12.8a2.46,2.46,0,0,0-1.38.43,2.59,2.59,0,0,0-1,1.25V22a1.11,1.11,0,0,0,.38.83,1.8,1.8,0,0,0,.85.45c.14,0,.2.14.2.33v.12c0,.12,0,.2-.05.24a.21.21,0,0,1-.17.06,9.45,9.45,0,0,1-1.18-.07c-.54,0-.93-.05-1.18-.05s-.65,0-1.16.05a8.46,8.46,0,0,1-1.15.07.24.24,0,0,1-.18-.06.43.43,0,0,1-.05-.24v-.12a.32.32,0,0,1,.08-.23.64.64,0,0,1,.22-.13,1.7,1.7,0,0,0,.8-.46,1.11,1.11,0,0,0,.33-.79V14.71c0-.67-.39-1.11-1.18-1.31-.11,0-.17-.1-.17-.25V13a.24.24,0,0,1,.2-.25,5.08,5.08,0,0,0,1.51-.59,5.84,5.84,0,0,0,1.2-.89.25.25,0,0,1,.18-.08l.2,0a.32.32,0,0,1,.22.3v1.69a4.3,4.3,0,0,1,1.5-1.5,3.8,3.8,0,0,1,1.89-.49,3.11,3.11,0,0,1,2.62,1.11,4.77,4.77,0,0,1,.87,3V22a1.1,1.1,0,0,0,.37.83,1.88,1.88,0,0,0,.86.45c.13,0,.2.14.2.33v.12a.43.43,0,0,1-.05.24.23.23,0,0,1-.18.06,9.68,9.68,0,0,1-1.18-.07c-.53,0-.92-.05-1.18-.05s-.65,0-1.15.05a8.56,8.56,0,0,1-1.15.07.22.22,0,0,1-.18-.06.43.43,0,0,1-.05-.24v-.12a.32.32,0,0,1,.07-.23.82.82,0,0,1,.23-.13,1.67,1.67,0,0,0,.79-.46,1.08,1.08,0,0,0,.34-.79V16.19Q147.37,12.8,145.21,12.8Z"/><path d="M158.59,6.3c-.12,0-.18-.1-.18-.25v-.2a.23.23,0,0,1,.2-.25,7.57,7.57,0,0,0,2.71-1.06.36.36,0,0,1,.3,0l.13,0a.27.27,0,0,1,.18.28V20.7a2,2,0,0,0,.26,1.16,1.56,1.56,0,0,0,.91.55c.12,0,.18.1.18.25v.2a.23.23,0,0,1-.2.25,5.82,5.82,0,0,0-1.48.39,3.6,3.6,0,0,0-1.18.67.58.58,0,0,1-.23.1l-.2-.05a.32.32,0,0,1-.22-.3V22.44a3.94,3.94,0,0,1-3.37,1.93,4.33,4.33,0,0,1-2.49-.79,5.3,5.3,0,0,1-1.81-2.3,8.65,8.65,0,0,1-.66-3.51,7.87,7.87,0,0,1,.74-3.59,5.26,5.26,0,0,1,2-2.23,5,5,0,0,1,2.71-.76,4.71,4.71,0,0,1,2.91.88V7.6C159.77,7,159.37,6.52,158.59,6.3Zm-3.85,15A2.54,2.54,0,0,0,157,22.84a2.48,2.48,0,0,0,1.6-.62,3.28,3.28,0,0,0,1-1.54V14.81a3.92,3.92,0,0,0-1.13-2,2.63,2.63,0,0,0-1.76-.68,2.36,2.36,0,0,0-2.13,1.21,7.65,7.65,0,0,0-.76,3.91A8.3,8.3,0,0,0,154.74,21.33Z"/><path d="M166.33,23.57a5.22,5.22,0,0,1-1.88-2.29,8.22,8.22,0,0,1-.67-3.44,8.41,8.41,0,0,1,.67-3.48A5.29,5.29,0,0,1,166.32,12a5.16,5.16,0,0,1,5.58,0,5.17,5.17,0,0,1,1.85,2.27,8.38,8.38,0,0,1,.65,3.4,8.91,8.91,0,0,1-.65,3.52,5.35,5.35,0,0,1-1.84,2.35,4.67,4.67,0,0,1-2.76.83A5,5,0,0,1,166.33,23.57Zm.73-1.55a2.51,2.51,0,0,0,2.29,1.57,2.1,2.1,0,0,0,1.91-1.48,10.24,10.24,0,0,0,.68-4.14,10.21,10.21,0,0,0-.78-4.42A2.41,2.41,0,0,0,169,12a2.2,2.2,0,0,0-2,1.48,9.76,9.76,0,0,0-.72,4.17A9.58,9.58,0,0,0,167.06,22Z"/><path d="M176.36,18.65l-1-11.75a1.39,1.39,0,0,1,.29-1.05,1.32,1.32,0,0,1,1-.38h.15a1.28,1.28,0,0,1,1,.38,1.31,1.31,0,0,1,.29,1.05l-.95,11.75a.3.3,0,0,1-.33.3h-.2A.3.3,0,0,1,176.36,18.65Zm-.57,2.93a1.23,1.23,0,0,1,1-.42,1.22,1.22,0,0,1,1,.42,1.68,1.68,0,0,1,.36,1.11,1.7,1.7,0,0,1-.36,1.13,1.22,1.22,0,0,1-1,.42,1.23,1.23,0,0,1-1-.42,1.7,1.7,0,0,1-.36-1.13A1.68,1.68,0,0,1,175.79,21.58Z"/></g></g></svg>